<?xml version="1.0" standalone="no"?>
<!DOCTYPE svg PUBLIC "-//W3C//DTD SVG 20010904//EN"
 "http://www.w3.org/TR/2001/REC-SVG-20010904/DTD/svg10.dtd">
<svg version="1.0" xmlns="http://www.w3.org/2000/svg"
 width="180.000000pt" height="180.000000pt" viewBox="0 0 180.000000 180.000000"
 preserveAspectRatio="xMidYMid meet">

<g transform="translate(0.000000,180.000000) scale(0.100000,-0.100000)"
fill="#000000" stroke="none">
<path d="M815 1420 c-266 -35 -455 -251 -455 -520 0 -267 192 -484 461 -522
265 -36 517 131 584 387 17 68 19 199 4 265 -46 199 -228 360 -442 389 -43 6
-81 10 -85 10 -4 -1 -34 -5 -67 -9z m204 -55 c128 -34 245 -123 303 -230 81
-153 75 -347 -17 -491 -95 -149 -235 -224 -416 -224 -193 0 -361 105 -440 275
-129 274 17 590 308 670 65 18 196 18 262 0z"/>
<path d="M777 1078 c-32 -51 -177 -319 -177 -327 0 -15 28 -21 38 -8 5 7 42
72 83 145 40 72 76 132 79 132 3 0 35 -40 69 -90 35 -49 65 -90 67 -90 17 0
234 117 234 127 0 26 -22 22 -115 -22 -53 -25 -100 -45 -104 -45 -4 0 -36 40
-70 90 -80 113 -86 118 -104 88z"/>
</g>
</svg>
